<svg xmlns="http://www.w3.org/2000/svg" class="coffee" viewBox="0 0 60 55" width="100" height="150">
    <g data-name="xicara">
        <path d="M57.931 37.433a7.084 7.084 0 00-8.463-5.361q-.291.068-.575.155v-1.656a1.019 1.019 0 00-1.015-1.019H7.113a1.019 1.019 0 00-1.019 1.019v3.057a24.517 24.517 0 009.531 19.361H4.056a1.019 1.019 0 00-1.019 1.019 7.143 7.143 0 007.133 7.133h34.647a7.143 7.143 0 007.133-7.133 1.019 1.019 0 00-1.019-1.019h-11.57a24.5 24.5 0 004.981-5.2l8.228-1.9a7.084 7.084 0 005.361-8.461zm-9.567 1.212l2.334-.467a1.045 1.045 0 11.495 2.031l-3.523 1.007a24.272 24.272 0 00.695-2.571zm1.446 16.383a5.1 5.1 0 01-4.993 4.076H10.17a5.1 5.1 0 01-4.992-4.076zM35.734 52.99H19.255A22.479 22.479 0 018.132 33.629V31.59h38.723v2.038A22.479 22.479 0 0135.734 52.99zm19.339-11.049a5.05 5.05 0 01-2.96 1.97l-6.235 1.436q.47-.858.87-1.751l5.005-1.43a3.084 3.084 0 00-1.453-5.989l-1.586.317q.126-1.054.155-2.126l.51-.17a5 5 0 014.552.7 5.05 5.05 0 011.143 7.047z" />
    </g>
    <g data-name="fumaca-esquerda">
        <path d="M33.608 6.114a3.057 3.057 0 01-3.057-3.057V0h-2.038v3.057a5.1 5.1 0 005.1 5.1 3.057 3.057 0 010 6.114H22.398A13.263 13.263 0 009.151 27.514h2.038A11.222 11.222 0 0122.398 16.3h11.21a5.1 5.1 0 100-10.19z" />
    </g>
    <g data-name="fumaca-diretia">
        <path d="M40.741 19.361h4.586a7.643 7.643 0 000-15.285h-.51a3.057 3.057 0 01-3.057-3.057V0h-2.043v1.019a5.1 5.1 0 005.1 5.1h.51a5.604 5.604 0 010 11.209h-4.586a3.567 3.567 0 000 7.133 3.057 3.057 0 013.057 3.057h2.038a5.1 5.1 0 00-5.1-5.1 1.529 1.529 0 110-3.057z" />
    </g>
    <g data-name="marca-xicara">
        <path d="M12.699 37.48l-1.988.446c.594 2.65 1.931 6.319 4.931 8.726l1.274-1.592c-2.536-2.033-3.689-5.243-4.217-7.58z" />
    </g>
    <g data-name="marca-xicara2">
        <path d="M12.204 33.628H10.17a18.726 18.726 0 00.166 2.167l2.022-.259a17 17 0 01-.154-1.908z" />
    </g>
</svg>