<svg xmlns="http://www.w3.org/2000/svg" xmlns:xlink="http://www.w3.org/1999/xlink" viewBox="0 0 340 332">
  <g transform="translate(-700 -369)" clip-path="url(#clip-path)">
    <g id="website" transform="translate(700 365)">
      <g id="Group_34" data-name="Group 34">
        <g id="Group_33" data-name="Group 33">
          <path id="Path_20" data-name="Path 20" d="M317.328,5.666H22.672A22.7,22.7,0,0,0,0,28.339V215.333A5.669,5.669,0,0,0,5.666,221H334.333A5.669,5.669,0,0,0,340,215.333V28.339A22.7,22.7,0,0,0,317.328,5.666Zm11.339,204H11.334V28.339A11.351,11.351,0,0,1,22.672,17H317.328a11.351,11.351,0,0,1,11.339,11.339Z" />
        </g>
      </g>
      <g id="Group_36" data-name="Group 36">
        <g id="Group_35" data-name="Group 35">
          <path id="Path_21" data-name="Path 21" d="M334.334,209.666H5.666A5.669,5.669,0,0,0,0,215.333V243.66a22.7,22.7,0,0,0,22.672,22.672H317.328A22.7,22.7,0,0,0,340,243.66V215.333A5.669,5.669,0,0,0,334.334,209.666Zm-5.667,33.995A11.351,11.351,0,0,1,317.328,255H22.672a11.351,11.351,0,0,1-11.339-11.339V221H328.667v22.661Z"  />
        </g>
      </g>
      <g id="Group_38" data-name="Group 38">
        <g id="Group_37" data-name="Group 37">
          <path id="Path_22" data-name="Path 22" d="M187,232.334H153a5.666,5.666,0,1,0,0,11.333h34a5.666,5.666,0,1,0,0-11.333Z"  />
        </g>
      </g>
      <g id="Group_40" data-name="Group 40">
        <g id="Group_39" data-name="Group 39">
          <path id="Path_23" data-name="Path 23" d="M311.666,28.334H28.334A5.669,5.669,0,0,0,22.667,34V215.334A5.669,5.669,0,0,0,28.334,221H311.667a5.669,5.669,0,0,0,5.666-5.666V34A5.669,5.669,0,0,0,311.666,28.334ZM306,209.666H34v-170H306Z"  />
        </g>
      </g>
      <g id="Group_42" data-name="Group 42">
        <g id="Group_41" data-name="Group 41">
          <path id="Path_24" data-name="Path 24" d="M243.666,300.334H96.334a17,17,0,0,0,0,34H243.667a17,17,0,1,0,0-34Zm0,22.666H96.334a5.666,5.666,0,1,1,0-11.333H243.667a5.666,5.666,0,1,1,0,11.333Z"  />
        </g>
      </g>
      <g id="Group_44" data-name="Group 44">
        <g id="Group_43" data-name="Group 43">
          <path id="Path_25" data-name="Path 25" d="M232.334,300.334c-18.8,0-28.334-13.345-28.334-39.666A5.669,5.669,0,0,0,198.334,255H141.667A5.669,5.669,0,0,0,136,260.667c0,26.321-9.531,39.666-28.334,39.666a5.666,5.666,0,1,0,0,11.333H232.334a5.666,5.666,0,0,0,0-11.333Zm-97.065,0c6.976-7.729,11.084-19.239,11.911-34h45.645c.821,14.761,4.93,26.271,11.911,34Z"  />
        </g>
      </g>
      <g id="Group_46" data-name="Group 46">
        <g id="Group_45" data-name="Group 45">
          <path id="Path_26" data-name="Path 26" d="M270.776,172.629,257.1,158.95l7.61-7.61a5.665,5.665,0,0,0-2.375-9.435l-56.666-17a5.668,5.668,0,0,0-7.055,7.055l17,56.666a5.664,5.664,0,0,0,9.435,2.38l8.013-8.019,13.679,13.685a5.664,5.664,0,0,0,8.013,0l16.025-16.031A5.66,5.66,0,0,0,270.776,172.629Zm-20.032,12.025-12.455-12.461a7.408,7.408,0,0,0-10.46-.006l-4.091,4.091-11.249-37.5,37.5,11.249-4.386,4.386a6.423,6.423,0,0,0,.011,9.072l13.146,13.146Z"  />
        </g>
      </g>
      <g id="Group_48" data-name="Group 48">
        <g id="Group_47" data-name="Group 47">
          <path id="Path_27" data-name="Path 27" d="M238,51H79.334a5.669,5.669,0,0,0-5.666,5.666V85a5.669,5.669,0,0,0,5.666,5.666H238A5.669,5.669,0,0,0,243.666,85V56.666A5.669,5.669,0,0,0,238,51Zm-5.666,28.334H85v-17H232.334Z"  />
        </g>
      </g>
      <g id="Group_50" data-name="Group 50">
        <g id="Group_49" data-name="Group 49">
          <path id="Path_28" data-name="Path 28" d="M147.334,113.334H102A5.669,5.669,0,0,0,96.334,119v22.666A5.669,5.669,0,0,0,102,147.333h45.334A5.669,5.669,0,0,0,153,141.666V119A5.669,5.669,0,0,0,147.334,113.334ZM141.666,136h-34V124.666h34Z"  />
        </g>
      </g>
      <g id="Group_52" data-name="Group 52">
        <g id="Group_51" data-name="Group 51">
          <path id="Path_29" data-name="Path 29" d="M238,51H79.334a5.669,5.669,0,0,0-5.666,5.666V164.333A5.669,5.669,0,0,0,79.334,170h134.9a5.671,5.671,0,0,0,5.429-7.3l-7.174-23.919,23.885,7.169a5.669,5.669,0,0,0,7.293-5.429V56.666A5.67,5.67,0,0,0,238,51Zm-5.666,81.906-26.673-8a5.67,5.67,0,0,0-7.055,7.061l8.013,26.7H85V62.334H232.334Z"  />
        </g>
      </g>
    </g>
  </g>
</svg>