
<svg xmlns="http://www.w3.org/2000/svg" viewBox="60 0 320 70.75" class="logo">
  <path class="logo-regiane" data-name="Regiane Silva" d="M143.751 13.896a17.454 17.454 0 0 1-.459 3.781q-.459 2.057-.886 2.057a.293.293 0 0 1-.332-.332 1.049 1.049 0 0 1 .066-.3 14.015 14.015 0 0 0 .88-5.008 9.174 9.174 0 0 0-2.49-6.716 8.8 8.8 0 0 0-6.574-2.54 21.226 21.226 0 0 0-11.355 3.62q4.914 3.915 4.914 8.494a8.516 8.516 0 0 1-3.1 6.619 14.8 14.8 0 0 1-8.189 3.367 6.321 6.321 0 0 1 3.453 5.781 26.656 26.656 0 0 1-1.76 7.675 17.672 17.672 0 0 0-1.162 5.317 4.5 4.5 0 0 0 1.431 3.373 4.843 4.843 0 0 0 3.493 1.379 6.626 6.626 0 0 0 4.023-1.411 1.494 1.494 0 0 1 .6-.266.235.235 0 0 1 .266.266q0 .56-1.862 1.3a8.957 8.957 0 0 1-3.225.741 6.753 6.753 0 0 1-5.354-2.541 9.384 9.384 0 0 1-2.161-6.3q0-2.725 2.391-9.6a9.6 9.6 0 0 0 .6-2.99 3.364 3.364 0 0 0-1.295-2.658q-2.125.2-2.424.2-3.287 0-3.287-.831 0-.531 1.66-.531a10.725 10.725 0 0 1 3.918.763 10.247 10.247 0 0 0 6.472-3.667 10.838 10.838 0 0 0 2.523-7.15 9.564 9.564 0 0 0-2.523-6.238l-.332-.431q-7.271 5.449-13.746 18.997-3.918 8.202-7.172 11.822a30.2 30.2 0 0 1-9.131 6.54q-6.939 3.388-12.38 3.388a12.723 12.723 0 0 1-7.4-2.042 6.033 6.033 0 0 1-2.955-5.1 4.4 4.4 0 0 1 1.021-2.919 3.081 3.081 0 0 1 2.424-1.229q2.025 0 2.025 2.258a2.865 2.865 0 0 1-.681 1.926 2.122 2.122 0 0 1-1.677.8q-1.727 0-1.66-1.793.033-.73-.133-.73-.531 0-.531 1.76a5.39 5.39 0 0 0 2.7 4.582 11.925 11.925 0 0 0 6.823 1.823 19.1 19.1 0 0 0 13.174-5.38 33.861 33.861 0 0 0 4.413-4.815q1.991-2.656 8.694-12.883a89.527 89.527 0 0 1 7.9-10.128 47.258 47.258 0 0 1 7.731-7.272q-5.18-4.413-15.207-4.413a33.727 33.727 0 0 0-24.374 10.127q-8.5 8.3-8.5 15.639a7.625 7.625 0 0 0 2.391 5.91 9.213 9.213 0 0 0 6.475 2.191q6.674 0 13.8-6.408t7.117-12.451q0-4.814-4.947-4.814t-10.609 5.523q-5.661 5.524-5.661 10.367a2.919 2.919 0 0 0 .8 2.057 2.477 2.477 0 0 0 1.869.863q.568 0 .568.3 0 .266-.633.266a3.29 3.29 0 0 1-2.699-1.443 5.658 5.658 0 0 1-1.1-3.533q0-5.176 5.678-10.085t11.654-4.91q5.711 0 5.711 5.279 0 6.441-7.271 13.016t-14.344 6.571a9.985 9.985 0 0 1-7.386-2.773 10.029 10.029 0 0 1-2.772-7.421q0-9.4 10.608-17.149a38.85 38.85 0 0 1 23.458-7.753q9.762 0 16.4 4.347a22.267 22.267 0 0 1 11.754-3.783 9.78 9.78 0 0 1 7.152 2.654 9.361 9.361 0 0 1 2.709 6.998zm3.2 24.166a4.006 4.006 0 0 1-.6.862l-1.429 1.79q-6.873 8.488-11.791 8.488a5.148 5.148 0 0 1-3.9-1.677 5.888 5.888 0 0 1-1.578-4.2q0-5.977 8.334-10.525 4.383-2.391 7.139-2.391a3.063 3.063 0 0 1 2.042.714 2.2 2.2 0 0 1 .847 1.743q0 2.391-3.121 4.067t-10.432 3.138q-2.258 3.42-2.258 5.711.001 2.856 3.092 2.856 5.246 0 12.862-10.244.4-.531.665-.531a.178.178 0 0 1 .132.199zm-2.806-6.159q0-1.063-1.162-1.062-1.76 0-4.632 2.44a34.247 34.247 0 0 0-5.628 6.325 25.9 25.9 0 0 0 8.1-3.47q3.327-2.241 3.327-4.233zm25.517 6.159q0 .531-3.59 4.543a39.141 39.141 0 0 1-10.401 7.925l-1.66 3.021a41.709 41.709 0 0 1-10.127 12.85q-5.379 4.35-9.3 4.35a3.329 3.329 0 0 1-2.357-.863 2.786 2.786 0 0 1-.93-2.125q0-6.807 15.373-13.812 3.32-1.527 4.283-2.059l5.648-10.393a58.725 58.725 0 0 1-5.2 6.292 4.551 4.551 0 0 1-3.1 1.411 3.638 3.638 0 0 1-2.939-1.528 5.8 5.8 0 0 1-1.212-3.719q0-5.744 7.5-10.426 5.014-3.121 7.869-3.121 1.992 0 1.992 2.191a4.333 4.333 0 0 1-.3 1.428l1.859-3.354a6.342 6.342 0 0 0 1.561.232 19.773 19.773 0 0 0 2.523-.232q-.232.3-2.922 4.98l-8.229 14.213a41.691 41.691 0 0 0 6.956-4.741 46.149 46.149 0 0 0 5.894-6.6q.5-.664.664-.664a.18.18 0 0 1 .149.201zm-8.517-5.462q0-1.693-1.627-1.693-2.988 0-7.919 5.96t-4.926 9.612q0 2.225 1.926 2.225 1.959 0 6.641-5.91 5.91-7.471 5.91-10.194zm-10.521 19.856q-.631.365-3.752 1.893-15.141 7.5-15.141 13.48a2.244 2.244 0 0 0 .764 1.727 2.793 2.793 0 0 0 1.959.7q3.652 0 7.105-3.735t8.666-13.4zM180.606 24.3a3.091 3.091 0 0 1-.979 2.175 2.94 2.94 0 0 1-2.142 1.013 1.321 1.321 0 0 1-1.494-1.494 2.966 2.966 0 0 1 1.029-2.108 3.069 3.069 0 0 1 2.158-1.013 1.262 1.262 0 0 1 1.429 1.426zm.481 13.729a3.56 3.56 0 0 1-.332.532l-1.429 1.962q-6.248 8.679-9.539 8.679a3.437 3.437 0 0 1-2.609-1.112 3.888 3.888 0 0 1-1.047-2.772q0-1.926 2.291-5.844l5.18-8.8a7.855 7.855 0 0 0 1.627.232 19.121 19.121 0 0 0 2.523-.232l-7.538 12.385a9.108 9.108 0 0 0-1.627 4.15q0 1.494 1.563 1.494 2.959 0 10.407-10.542.167-.332.333-.332a.176.176 0 0 1 .198.2zm23.408 0q0 .7-4.853 6.451-3.921 4.722-6.181 4.722a3.107 3.107 0 0 1-2.493-1.146 4.308 4.308 0 0 1-.964-2.872 8.65 8.65 0 0 1 1.063-3.885 45.441 45.441 0 0 1-5.08 6.275 5.155 5.155 0 0 1-3.42 1.627 3.636 3.636 0 0 1-2.955-1.511 5.937 5.937 0 0 1-1.2-3.8q0-6.375 9-11.289 3.951-2.191 6.375-2.191a1.791 1.791 0 0 1 2.059 1.992 5.749 5.749 0 0 1-.266 1.494l1.693-3.221a7.86 7.86 0 0 0 1.76.232 15.1 15.1 0 0 0 2.324-.232l-5.875 9.728q-3.055 5.113-3.055 6.74 0 1.561 1.3 1.561 1.33 0 4.256-3.043a57.117 57.117 0 0 0 5.952-7.5q.2-.332.366-.332a.176.176 0 0 1 .195.2zm-9.147-5.5q0-1.627-1.494-1.627-3.055 0-8.019 5.977t-4.963 9.666q0 2.158 1.926 2.158 2.291 0 7.936-7.6 4.615-6.245 4.615-8.565zm35.81 5.5q0 .7-4.82 6.451-3.955 4.722-6.215 4.722a3.2 3.2 0 0 1-2.51-1.164 4.19 4.19 0 0 1-1.014-2.855 6.317 6.317 0 0 1 .614-2.772 50.79 50.79 0 0 1 3.2-5.063q2.689-3.984 2.689-5.08 0-1.361-1.428-1.361-4.848 0-14.941 18-1.627-.133-1.959-.133a17.144 17.144 0 0 0-2.191.133l5.18-8.2q4.416-7.039 4.416-8.8 0-1-.832-1-1.7 0-6.688 7.155-.3.432-.466.465-.166 0-.2-.2a.505.505 0 0 1 .133-.266l.632-.832q5.088-6.821 6.851-6.821a2.374 2.374 0 0 1 1.933 1.03 3.89 3.89 0 0 1 .8 2.457q0 2.125-2.49 5.91a58.051 58.051 0 0 1 6.026-7.4 5.987 5.987 0 0 1 3.9-1.992 3.079 3.079 0 0 1 2.457 1.2 4.461 4.461 0 0 1 1 2.955q0 2.225-3.055 6.807-3.121 4.682-3.121 5.977a1.2 1.2 0 0 0 1.36 1.352q2.959 0 10.207-10.542.167-.332.333-.332a.176.176 0 0 1 .2.199zm16.734.033a4.006 4.006 0 0 1-.6.862l-1.429 1.79q-6.876 8.488-11.794 8.488a5.148 5.148 0 0 1-3.9-1.677 5.888 5.888 0 0 1-1.578-4.2q0-5.977 8.334-10.525 4.383-2.391 7.139-2.391a3.063 3.063 0 0 1 2.042.714 2.2 2.2 0 0 1 .847 1.743q0 2.391-3.121 4.067T233.4 40.071q-2.258 3.42-2.258 5.711 0 2.856 3.091 2.856 5.251 0 12.863-10.244.4-.531.665-.531a.178.178 0 0 1 .132.199zm-2.806-6.159q0-1.063-1.162-1.062-1.76 0-4.632 2.44a34.246 34.246 0 0 0-5.628 6.325 25.9 25.9 0 0 0 8.1-3.47q3.323-2.241 3.323-4.233zm76.236-26.865q0 1.594-3.2 4.6a45.472 45.472 0 0 1-7.819 5.761q-.6 1.893-1.76 6.873a61.664 61.664 0 0 1-3.42 11.073 23.168 23.168 0 0 1-5.146 6.657q-10.359 9.795-23.209 9.795a16.175 16.175 0 0 1-6.513-1.226 12.1 12.1 0 0 0-1.561 5.32 8.241 8.241 0 0 0 1.909 5.254.638.638 0 0 1 .2.465q0 .266-.332.266-.769 0-1.654-2.061a9.812 9.812 0 0 1-.886-3.857 12.183 12.183 0 0 1 1.693-5.72q-6.939-3.586-6.939-12.318a21.532 21.532 0 0 1 3.32-11.156 34.734 34.734 0 0 1 9.33-9.994q7.67-5.645 15.174-5.645A9.027 9.027 0 0 1 297 11.416a8.165 8.165 0 0 1 2.407 6.209 16.982 16.982 0 0 1-.6 4.35q4.881-3.254 8.633-5.512a31.969 31.969 0 0 1 6.01-8.965q3.619-3.752 6.309-3.752 1.563.001 1.563 1.292zm-.631.066q0-.8-.93-.8-2.225 0-4.964 3.071a21.894 21.894 0 0 0-4.233 7.188 45.235 45.235 0 0 0 7.255-5.379q2.872-2.682 2.872-4.076zm-23.043 18.365-2.191 1.494q-12.515 8.633-18.063 14.375a6.346 6.346 0 0 0 2.988.73q4.648 0 9.729-4.881a30.136 30.136 0 0 0 7.537-11.718zm9.4-6.109q-3.885 2.457-8.5 5.578a28.931 28.931 0 0 1-7.687 12.352q-5.5 5.313-10.542 5.313a8.461 8.461 0 0 1-3.354-.8 47.417 47.417 0 0 0-6.375 8.168 14.861 14.861 0 0 0 6.173 1.231 23.042 23.042 0 0 0 12.086-3.536 31.92 31.92 0 0 0 10.027-9.812 37.7 37.7 0 0 0 3.088-5.429q1.129-2.507 3.652-9.446.598-1.727 1.426-3.619zm-8.234.133a7.431 7.431 0 0 0-2.208-5.611 8.05 8.05 0 0 0-5.827-2.125q-8.932 0-17.282 9.3t-8.355 19.254q0 6.541 4.814 9.3a48.984 48.984 0 0 1 6.475-8.135 5.782 5.782 0 0 1-2.189-4.518 4.928 4.928 0 0 1 1.262-3.4 3.952 3.952 0 0 1 3.055-1.411q2.225 0 2.225 2.059a2.448 2.448 0 0 1-.83 1.843 2.765 2.765 0 0 1-1.959.78q-1.627 0-1.627-1.561a2.112 2.112 0 0 1 .332-1.062 3.339 3.339 0 0 0 .133-.5.176.176 0 0 0-.2-.2q-.564 0-1.162 1.2a5.242 5.242 0 0 0-.6 2.357 5.069 5.069 0 0 0 2.025 3.918q6.674-7.043 21.084-16.443a18.9 18.9 0 0 0 .83-5.045zm20.055 6.807a3.091 3.091 0 0 1-.979 2.175 2.94 2.94 0 0 1-2.142 1.013 1.321 1.321 0 0 1-1.494-1.494 2.966 2.966 0 0 1 1.029-2.108 3.069 3.069 0 0 1 2.158-1.013 1.262 1.262 0 0 1 1.424 1.426zm.481 13.729a3.559 3.559 0 0 1-.332.532l-1.429 1.962q-6.254 8.679-9.547 8.679a3.437 3.437 0 0 1-2.609-1.112 3.888 3.888 0 0 1-1.047-2.772q0-1.926 2.291-5.844l5.18-8.8a7.855 7.855 0 0 0 1.627.232 19.121 19.121 0 0 0 2.523-.232l-7.535 12.385a9.108 9.108 0 0 0-1.627 4.15q0 1.494 1.563 1.494 2.959 0 10.407-10.542.167-.332.333-.332a.176.176 0 0 1 .194.2zm17.481-23.524q-13.949 23.208-16.256 27.292t-2.308 5.412q0 1.494 1.263 1.494 2.793 0 10.241-10.542.166-.332.4-.332a.178.178 0 0 1 .133.2.911.911 0 0 1-.332.532l-1.43 1.962q-6.283 8.679-9.275 8.679a2.933 2.933 0 0 1-2.343-1.079 4.091 4.091 0 0 1-.914-2.739 7.878 7.878 0 0 1 .847-3.536q.847-1.71 5.761-9.878 6.01-9.994 10.127-17.332a6.936 6.936 0 0 0 1.76.266 6.57 6.57 0 0 0 2.323-.4zm12.036 23.458q0 .4-2.1 2.564-2.893 3.03-5.056 3.03a2.813 2.813 0 0 1-2.428-1.594 34 34 0 0 1-4.814 5.661 5.8 5.8 0 0 1-3.751 1.578 3.854 3.854 0 0 1-2.855-1.179 3.9 3.9 0 0 1-1.162-2.839q0-1.959 2.225-5.711l5.246-8.8q1.627.166 2.191.166a9.2 9.2 0 0 0 1.959-.166l-6.94 11.224q-2.291 3.785-2.291 5.246 0 1.561 1.76 1.561a5.151 5.151 0 0 0 3.337-1.494 43.007 43.007 0 0 0 4.9-5.645 6.224 6.224 0 0 1-.3-1.76 12.3 12.3 0 0 1 1.859-6.209q1.859-3.187 3.586-3.187.83 0 .83.963 0 2.49-5.512 10.26a2.28 2.28 0 0 0 2.162 1.494q2.528 0 6.153-4.5.665-.8.865-.8a.117.117 0 0 1 .133.136zm23.342.066q0 .7-4.853 6.451-3.926 4.722-6.186 4.722a3.107 3.107 0 0 1-2.493-1.146 4.308 4.308 0 0 1-.964-2.872 8.649 8.649 0 0 1 1.063-3.885 45.44 45.44 0 0 1-5.08 6.275 5.155 5.155 0 0 1-3.42 1.627 3.636 3.636 0 0 1-2.955-1.511 5.937 5.937 0 0 1-1.2-3.8q0-6.375 9-11.289 3.951-2.191 6.375-2.191a1.791 1.791 0 0 1 2.059 1.992 5.748 5.748 0 0 1-.266 1.494l1.693-3.221a7.86 7.86 0 0 0 1.76.232 15.1 15.1 0 0 0 2.324-.232l-5.877 9.729q-3.055 5.113-3.055 6.74 0 1.561 1.3 1.561 1.33 0 4.256-3.043a57.117 57.117 0 0 0 5.952-7.5q.2-.332.366-.332a.176.176 0 0 1 .197.199zm-9.147-5.5q0-1.627-1.494-1.627-3.055 0-8.019 5.977t-4.964 9.662q0 2.158 1.926 2.158 2.291 0 7.936-7.6 4.611-6.241 4.611-8.561z"/>
</svg>